<svg xmlns="http://www.w3.org/2000/svg" width="39.484" height="30.71" viewBox="0 0 39.484 30.71">
  <path id="Icon_awesome-shopping-basket" data-name="Icon awesome-shopping-basket" d="M39.484,14.863v1.1a1.645,1.645,0,0,1-1.645,1.645h-.548L35.5,30.135a3.29,3.29,0,0,1-3.257,2.825h-25a3.29,3.29,0,0,1-3.257-2.825l-1.79-12.53H1.645A1.645,1.645,0,0,1,0,15.96v-1.1a1.645,1.645,0,0,1,1.645-1.645H6.261l7.32-10.064a2.194,2.194,0,1,1,3.548,2.58l-5.443,7.484H27.8L22.355,5.734A2.194,2.194,0,0,1,25.9,3.153l7.32,10.065h4.616A1.645,1.645,0,0,1,39.484,14.863Zm-18.1,12.065V19.25a1.645,1.645,0,0,0-3.29,0v7.678a1.645,1.645,0,0,0,3.29,0Zm7.678,0V19.25a1.645,1.645,0,0,0-3.29,0v7.678a1.645,1.645,0,0,0,3.29,0Zm-15.355,0V19.25a1.645,1.645,0,0,0-3.29,0v7.678a1.645,1.645,0,0,0,3.29,0Z" transform="translate(0 -2.25)" fill="#43a047"/>
</svg>
