<svg xmlns="http://www.w3.org/2000/svg" width="27.536" height="23.191" viewBox="0 0 27.536 23.191">
  <path id="Icon_awesome-shopping-basket" data-name="Icon awesome-shopping-basket" d="M24.273,10.036v.677a1.013,1.013,0,0,1-1.011,1.016h-.337l-1.1,7.735a2.025,2.025,0,0,1-2,1.744H4.451a2.026,2.026,0,0,1-2-1.744l-1.1-7.735H1.011A1.013,1.013,0,0,1,0,10.713v-.677A1.013,1.013,0,0,1,1.011,9.021H3.849l4.5-6.213A1.35,1.35,0,1,1,10.53,4.4L7.184,9.021h9.9L13.743,4.4a1.35,1.35,0,1,1,2.181-1.593l4.5,6.213h2.838A1.013,1.013,0,0,1,24.273,10.036ZM13.148,17.484v-4.74a1.011,1.011,0,1,0-2.023,0v4.74a1.011,1.011,0,1,0,2.023,0Zm4.72,0v-4.74a1.011,1.011,0,1,0-2.023,0v4.74a1.011,1.011,0,1,0,2.023,0Zm-9.439,0v-4.74a1.011,1.011,0,1,0-2.023,0v4.74a1.011,1.011,0,1,0,2.023,0Z" transform="translate(0 1.982)" fill="#43a047"/>
  <path id="Icon_awesome-plus" data-name="Icon awesome-plus" d="M8.045,5.654H5.26V2.869a.619.619,0,0,0-.619-.619H4.022a.619.619,0,0,0-.619.619V5.654H.619A.619.619,0,0,0,0,6.272v.619a.619.619,0,0,0,.619.619H3.4v2.785a.619.619,0,0,0,.619.619h.619a.619.619,0,0,0,.619-.619V7.51H8.045a.619.619,0,0,0,.619-.619V6.272A.619.619,0,0,0,8.045,5.654Z" transform="translate(18.872 -2.25)" fill="#43a047"/>
</svg>
