<svg xmlns="http://www.w3.org/2000/svg" width="15.98" height="15.576" viewBox="0 0 15.98 15.576">
  <path id="Icon_awesome-arrow-right" data-name="Icon awesome-arrow-right" d="M6.795,3.691,7.586,2.9A.852.852,0,0,1,8.8,2.9l6.934,6.93a.852.852,0,0,1,0,1.209L8.8,17.971a.852.852,0,0,1-1.209,0l-.792-.792a.857.857,0,0,1,.014-1.223l4.3-4.095H.856A.854.854,0,0,1,0,11.006V9.864a.854.854,0,0,1,.856-.856H11.107l-4.3-4.095A.851.851,0,0,1,6.795,3.691Z" transform="translate(0 -2.647)" fill="#f8f8f8"/>
</svg>
