<svg xmlns="http://www.w3.org/2000/svg" width="43" height="100" viewBox="0 0 43 100">
  <g id="Group_34" data-name="Group 34" transform="translate(13.795 16.756)">
    <path id="Path_3" data-name="Path 3" d="M80.5,28.843" transform="translate(-66.173 -8.521)" fill="#707070"/>
    <path id="Path_4" data-name="Path 4" d="M71.234,43.995h2.376V42.062q0-5.365,6.994-5.365h1.73c.452,0,.679.395.679,1.188s-.226,1.188-.679,1.188H80.6q-4.276,0-4.277,2.648v2.273h6.733q.678,0,.679,1.19t-.679,1.187H76.326V67.861a8.829,8.829,0,0,1-.628,3.583q-.629,1.409-1.376,1.409a2.03,2.03,0,0,1-1.086-.46q-.644-.458-.644-.864a1.51,1.51,0,0,1,.272-.51,6.988,6.988,0,0,0,.745-3.5V46.372H71.234q-.679,0-.679-1.187T71.234,43.995Z" transform="translate(-70.555 -5.06)" fill="#707070"/>
    <path id="Path_5" data-name="Path 5" d="M78.549,18.639c1.681-.213,3.371.386,3.973,1.53a2.473,2.473,0,0,1,.271,1.118V39.034a2.225,2.225,0,0,1-.968,2.037,5.676,5.676,0,0,1-2.97.612H74.831q-.679,0-.679,1.187t.679,1.188h4.023a8.277,8.277,0,0,0,4.94-1.256,4.7,4.7,0,0,0,1.7-3.976c0-.016.012-.027.012-.043V21.626A4.979,4.979,0,0,0,84.59,18.6a8.382,8.382,0,0,0,2.667-.578c.667-.292,1-.645,1-1.052a2.021,2.021,0,0,0-.458-1.086c-.305-.429-.595-.645-.867-.645a1.54,1.54,0,0,0-.509.272,6.987,6.987,0,0,1-3.5.746l-3.194-.36a6.339,6.339,0,0,0-4.26,1.174,4.472,4.472,0,0,0-2.02,4.091V30.2a6.916,6.916,0,0,0,1.222,4.565,5.043,5.043,0,0,0,3.816,1.389l0,.02h.764c.457,0,.684-.395.684-1.188S79.71,33.8,79.253,33.8h-.439a2.368,2.368,0,0,1-2.049-.814A4.869,4.869,0,0,1,76.17,30.2v-9.37A2.648,2.648,0,0,1,78.549,18.639Z" transform="translate(-71.615 -15.244)" fill="#707070"/>
    <path id="Path_14" data-name="Path 14" d="M2.709,0A2.709,2.709,0,1,1,0,2.709,2.709,2.709,0,0,1,2.709,0Z" transform="translate(11.504 62.373)" fill="#707070"/>
  </g>
  <g id="Path_21" data-name="Path 21" fill="none">
    <path d="M0,0H43V82a18,18,0,0,1-18,18H0Z" stroke="none"/>
    <path d="M 3 3 L 3 97 L 25 97 C 29.00664520263672 97 32.77347564697266 95.43972015380859 35.60659790039063 92.60659790039063 C 38.43972396850586 89.77347564697266 40 86.00664520263672 40 82 L 40 3 L 3 3 M 0 0 L 43 0 L 43 82 C 43 91.94112396240234 34.94112396240234 100 25 100 L 0 100 L 0 0 Z" stroke="none" fill="#707070"/>
  </g>
</svg>
